HIERARCHY
ROOT Hips
{
	OFFSET 0.000000 0.000000 0.000000
	CHANNELS 6 Xposition Yposition Zposition Zrotation Yrotation Xrotation 
	JOINT LeftUpLeg_virtual
	{
		OFFSET 0.000000 0.000000 0.000000
		CHANNELS 3 Zrotation Yrotation Xrotation
		JOINT LeftUpLeg
		{
			OFFSET 8.479694 -4.795517 -0.379053
			CHANNELS 3 Zrotation Yrotation Xrotation
			JOINT LeftLeg
			{
				OFFSET 0.485052 -32.551468 0.112863
				CHANNELS 3 Zrotation Yrotation Xrotation
				JOINT LeftFoot
				{
					OFFSET 0.438033 -32.635670 -3.012641
					CHANNELS 3 Zrotation Yrotation Xrotation
					JOINT LeftToeBase
					{
						OFFSET 0.970169 -13.225353 11.864223
						CHANNELS 3 Zrotation Yrotation Xrotation
						End Site
						{
							OFFSET 0.000000 0.000000 0.000000
						}
					}
				}
			}
		}
	}
	JOINT RightUpLeg_virtual
	{
		OFFSET 0.000000 0.000000 0.000000
		CHANNELS 3 Zrotation Yrotation Xrotation
		JOINT RightUpLeg
		{
			OFFSET -8.479694 -4.795517 -0.379053
			CHANNELS 3 Zrotation Yrotation Xrotation
			JOINT RightLeg
			{
				OFFSET -0.484100 -32.551483 0.112903
				CHANNELS 3 Zrotation Yrotation Xrotation
				JOINT RightFoot
				{
					OFFSET -0.438985 -32.635651 -3.012681
					CHANNELS 3 Zrotation Yrotation Xrotation
					JOINT RightToeBase
					{
						OFFSET -0.970169 -13.225354 11.864223
						CHANNELS 3 Zrotation Yrotation Xrotation
						End Site
						{
							OFFSET 0.000000 0.000000 0.000000
						}
					}
				}
			}
		}
	}
	JOINT Spine_virtual
	{
		OFFSET 0.000000 0.000000 0.000000
		CHANNELS 3 Zrotation Yrotation Xrotation
		JOINT Spine
		{
			OFFSET 0.000000 7.722015 1.166203
			CHANNELS 3 Zrotation Yrotation Xrotation
			JOINT Spine1
			{
				OFFSET 0.000000 12.024086 0.248766
				CHANNELS 3 Zrotation Yrotation Xrotation
				JOINT Spine2
				{
					OFFSET -0.000000 11.503036 -0.491240
					CHANNELS 3 Zrotation Yrotation Xrotation
					JOINT Neck_virtual
					{
						OFFSET 0.000000 0.000000 0.000000
						CHANNELS 3 Zrotation Yrotation Xrotation
						JOINT Neck
						{
							OFFSET 0.000000 18.430687 -3.123054
							CHANNELS 3 Zrotation Yrotation Xrotation
							JOINT Head
							{
								OFFSET -0.000000 9.051071 1.034021
								CHANNELS 3 Zrotation Yrotation Xrotation
								End Site
								{
									OFFSET 0.000000 0.000000 0.000000
								}
							}
						}
					}
					JOINT LeftShoulder_virtual
					{
						OFFSET 0.000000 0.000000 0.000000
						CHANNELS 3 Zrotation Yrotation Xrotation
						JOINT LeftShoulder
						{
							OFFSET 6.197824 13.665230 -4.064723
							CHANNELS 3 Zrotation Yrotation Xrotation
							JOINT LeftArm
							{
								OFFSET 7.778132 -0.187073 -1.709282
								CHANNELS 3 Zrotation Yrotation Xrotation
								JOINT LeftForeArm
								{
									OFFSET 21.954697 0.000000 -2.041093
									CHANNELS 3 Zrotation Yrotation Xrotation
									JOINT LeftHand
									{
										OFFSET 22.992908 0.000000 -0.870901
										CHANNELS 3 Zrotation Yrotation Xrotation
										End Site
										{
											OFFSET 0.000000 0.000000 0.000000
										}
									}
								}
							}
						}
					}
					JOINT RightShoulder_virtual
					{
						OFFSET 0.000000 0.000000 0.000000
						CHANNELS 3 Zrotation Yrotation Xrotation
						JOINT RightShoulder
						{
							OFFSET -6.197824 13.665230 -4.064723
							CHANNELS 3 Zrotation Yrotation Xrotation
							JOINT RightArm
							{
								OFFSET -7.778132 -0.187073 -1.709282
								CHANNELS 3 Zrotation Yrotation Xrotation
								JOINT RightForeArm
								{
									OFFSET -21.954697 0.000000 -2.041093
									CHANNELS 3 Zrotation Yrotation Xrotation
									JOINT RightHand
									{
										OFFSET -22.992908 0.000000 -0.870901
										CHANNELS 3 Zrotation Yrotation Xrotation
										End Site
										{
											OFFSET 0.000000 0.000000 0.000000
										}
									}
								}
							}
						}
					}
				}
			}
		}
	}
}
MOTION
Frames: 10
Frame Time: 0.033333
14.025635 82.353912 19.022327 179.877512 4.337680 -179.964338 -4.766854 0.172231 11.239578 2.779634 -0.482445 -22.128624 4.011595 4.425937 25.094151 -4.680516 -7.473157 -6.614278 0.000000 0.000000 0.000000 -0.521597 -0.260064 11.002344 0.264930 -4.657465 -15.580175 -1.529068 2.837672 22.915100 8.034464 9.185740 -8.384459 0.000000 0.000000 0.000000 2.378473 2.335274 0.700883 -6.030723 1.028340 -0.378379 0.731715 -3.492890 4.532584 0.000112 -0.014947 0.013264 0.641414 -2.478594 4.745539 0.308422 2.436541 -14.646429 0.000000 0.000000 0.000000 1.847707 -1.617750 2.087917 9.316287 1.589036 -3.985262 -10.122967 2.717207 -38.035800 -6.519550 -20.760968 -6.020972 0.000000 0.000000 0.000000 -1.754239 -0.503141 1.506292 7.203096 -7.486854 -4.957588 12.111534 -10.450374 -46.181802 -0.950807 26.037779 -3.408522 0.000000 0.000000 0.000000 
14.016996 82.352867 19.019455 179.948000 4.220510 -179.974815 -4.695156 0.049454 11.263096 2.802773 -0.451619 -22.119501 4.126077 4.306883 25.275976 -4.636017 -7.409148 -6.636304 0.000000 0.000000 0.000000 -0.326027 -0.302303 11.117192 0.124402 -4.762611 -15.468331 -1.572844 2.543710 23.087373 8.304368 9.347501 -8.324684 0.000000 0.000000 0.000000 2.416520 2.246840 0.737155 -6.000245 0.967821 -0.419635 0.760951 -3.499134 4.558422 0.030066 -0.004189 0.019402 0.588944 -2.582176 4.700733 0.310492 2.431805 -14.624099 0.000000 0.000000 0.000000 1.811882 -1.630394 1.983168 9.308666 1.581199 -3.986355 -10.112837 2.856345 -37.909988 -6.492050 -20.763152 -5.936914 0.000000 0.000000 0.000000 -1.773792 -0.588691 1.526486 7.156109 -7.380928 -4.923974 12.176538 -10.516407 -46.248304 -0.976113 25.990499 -3.459939 0.000000 0.000000 0.000000 
14.004597 82.351997 19.010672 179.969884 4.254608 -179.892498 -4.681185 0.049783 11.249347 2.792198 -0.435736 -22.163153 4.126640 4.343777 25.273696 -4.627740 -7.412248 -6.638806 0.000000 0.000000 0.000000 -0.360763 -0.225703 11.084011 0.161938 -4.796736 -15.513538 -1.533046 2.612963 23.095819 8.257265 9.322885 -8.327217 0.000000 0.000000 0.000000 2.434674 2.231965 0.716008 -5.997761 0.955740 -0.437310 0.765410 -3.528941 4.543436 0.028548 -0.006726 0.017374 0.612464 -2.547790 4.730633 0.326688 2.406167 -14.628863 0.000000 0.000000 0.000000 1.852561 -1.596513 1.964490 9.330160 1.633478 -4.150132 -10.118600 2.990371 -37.907338 -6.589195 -20.784419 -5.912045 0.000000 0.000000 0.000000 -1.770767 -0.420291 1.549851 7.119163 -7.409858 -4.953504 12.313244 -10.687644 -46.375304 -0.952119 25.977168 -3.396357 0.000000 0.000000 0.000000 
13.989764 82.350784 19.002892 179.966114 4.095088 -179.925638 -4.692934 -0.014909 11.280706 2.783443 -0.491583 -22.158110 4.120911 4.311904 25.271309 -4.622821 -7.428922 -6.635607 0.000000 0.000000 0.000000 -0.345135 -0.314722 11.120023 0.145159 -4.895425 -15.500897 -1.514895 2.588471 23.089108 8.280735 9.335505 -8.340091 0.000000 0.000000 0.000000 2.445598 2.184703 0.759458 -6.001554 0.954003 -0.435243 0.762116 -3.515290 4.536648 0.025334 -0.023367 0.048197 0.615428 -2.551112 4.694430 0.338979 2.383519 -14.644337 0.000000 0.000000 0.000000 1.844033 -1.597237 1.977030 9.335060 1.650856 -4.067771 -10.065569 2.946573 -37.958524 -6.535790 -20.799524 -5.957478 0.000000 0.000000 0.000000 -1.766902 -0.459788 1.486356 7.091282 -7.440316 -4.852056 12.418265 -10.944214 -46.464390 -1.053213 25.959891 -3.509095 0.000000 0.000000 0.000000 
13.977814 82.350082 18.991535 179.881774 4.019945 -179.988858 -4.756197 -0.005680 11.342034 2.790405 -0.657837 -22.142538 4.108100 4.325689 25.264250 -4.556496 -7.390806 -6.636513 0.000000 0.000000 0.000000 -0.462750 -0.374089 11.166187 0.182920 -4.968675 -15.483982 -1.462024 2.740640 23.100489 8.242736 9.362401 -8.333434 0.000000 0.000000 0.000000 2.401241 2.157622 0.799496 -6.038560 0.960008 -0.394538 0.738510 -3.512435 4.554305 0.005658 -0.031219 0.034456 0.649715 -2.459722 4.669715 0.365397 2.448544 -14.650681 0.000000 0.000000 0.000000 1.880514 -1.592676 1.924057 9.366766 1.645366 -3.939906 -10.066263 2.989248 -38.066970 -6.528615 -20.817954 -5.916003 0.000000 0.000000 0.000000 -1.728599 -0.421074 1.460556 7.015692 -7.434601 -4.711083 12.564508 -11.183229 -46.609911 -1.172279 25.967186 -3.532179 0.000000 0.000000 0.000000 
13.958580 82.356163 18.974636 179.967070 3.971957 -179.902770 -4.686448 -0.034112 11.346332 2.783927 -0.569303 -22.195104 4.121644 4.306714 25.274050 -4.562869 -7.416674 -6.628822 0.000000 0.000000 0.000000 -0.279425 -0.358373 11.151085 0.066929 -5.024262 -15.515632 -1.465635 2.573173 23.082587 8.319437 9.367370 -8.326943 0.000000 0.000000 0.000000 2.465695 2.164699 0.792840 -6.004772 1.029496 -0.427733 0.768428 -3.451850 4.526350 0.026344 0.026497 0.012615 0.602448 -2.543196 4.696024 0.398686 2.372206 -14.660835 0.000000 0.000000 0.000000 1.823540 -1.626076 2.020148 9.362278 1.603897 -4.104460 -9.911445 2.872479 -37.989789 -6.533772 -20.730720 -5.978957 0.000000 0.000000 0.000000 -1.805361 -0.485722 1.483294 6.900112 -7.440857 -4.804547 12.633996 -11.521961 -46.786687 -1.127299 26.015950 -3.489944 0.000000 0.000000 0.000000 
13.940211 82.359108 18.957273 179.962944 3.723875 -179.973640 -4.681082 -0.143295 11.392826 2.770292 -0.667395 -22.197673 4.121043 4.244530 25.243655 -4.550706 -7.424800 -6.611055 0.000000 0.000000 0.000000 -0.275222 -0.531984 11.217240 0.058586 -5.118130 -15.488145 -1.441706 2.573445 23.069893 8.318839 9.374589 -8.321721 0.000000 0.000000 0.000000 2.474177 2.067078 0.822051 -6.003486 0.988839 -0.407062 0.771940 -3.485964 4.544253 0.034856 -0.002006 0.058126 0.585719 -2.531190 4.604166 0.422771 2.421706 -14.668227 0.000000 0.000000 0.000000 1.774830 -1.570124 1.946065 9.368073 1.609875 -4.157257 -9.890507 2.764433 -38.077932 -6.616116 -20.635282 -5.861440 0.000000 0.000000 0.000000 -1.744077 -0.581094 1.474726 6.698939 -7.374142 -4.987122 12.773244 -11.693111 -47.177179 -0.992640 25.976306 -3.260537 0.000000 0.000000 0.000000 
13.923122 82.356560 18.937889 179.954352 3.693213 -179.897812 -4.687797 -0.156094 11.398738 2.757600 -0.709130 -22.240629 4.099075 4.283587 25.239620 -4.522521 -7.413870 -6.616181 0.000000 0.000000 0.000000 -0.292070 -0.481572 11.193868 0.062989 -5.222586 -15.533628 -1.406552 2.631560 23.082138 8.293471 9.384032 -8.344001 0.000000 0.000000 0.000000 2.481900 2.064924 0.807018 -6.005761 1.029557 -0.440629 0.783745 -3.459286 4.511607 0.034680 0.019977 0.025747 0.595156 -2.514226 4.673819 0.450266 2.376837 -14.655965 0.000000 0.000000 0.000000 1.816730 -1.605249 1.976823 9.348081 1.554178 -4.005561 -9.875068 2.672108 -38.117824 -6.542026 -20.579577 -5.965742 0.000000 0.000000 0.000000 -1.799588 -0.491179 1.518522 6.706723 -7.337783 -4.691572 12.791847 -11.920152 -47.232346 -1.202079 25.977163 -3.491764 0.000000 0.000000 0.000000 
13.903777 82.351639 18.921467 179.959598 3.411840 -179.968805 -4.670596 -0.223162 11.444946 2.739982 -0.791204 -22.219111 4.085377 4.203558 25.233512 -4.544967 -7.444613 -6.612607 0.000000 0.000000 0.000000 -0.291498 -0.642970 11.268554 0.041189 -5.305490 -15.494040 -1.401341 2.580849 23.081875 8.281889 9.385403 -8.367520 0.000000 0.000000 0.000000 2.516980 2.022564 0.856044 -5.985572 1.012567 -0.406814 0.785369 -3.460185 4.522746 0.019604 0.029793 0.031501 0.633874 -2.528138 4.635764 0.465640 2.393783 -14.643574 0.000000 0.000000 0.000000 1.837190 -1.648982 1.976836 9.326616 1.495105 -4.136569 -9.915367 2.532005 -38.020149 -6.552538 -20.453372 -5.885933 0.000000 0.000000 0.000000 -1.767385 -0.519706 1.379324 6.646768 -7.274490 -4.678987 12.912961 -12.189407 -47.268679 -1.201596 25.931399 -3.424176 0.000000 0.000000 0.000000 
13.887527 82.351830 18.904078 179.939708 3.405196 -179.934558 -4.664410 -0.185022 11.444271 2.733525 -0.810625 -22.235073 4.064024 4.217478 25.179757 -4.540971 -7.435128 -6.599126 0.000000 0.000000 0.000000 -0.292831 -0.578098 11.262776 0.047090 -5.392248 -15.510504 -1.383814 2.627461 23.100398 8.257264 9.396260 -8.383447 0.000000 0.000000 0.000000 2.514031 2.023241 0.784361 -5.985781 1.028305 -0.389239 0.787213 -3.464478 4.553627 0.000107 0.008394 0.062433 0.667285 -2.498663 4.546745 0.507322 2.429284 -14.626189 0.000000 0.000000 0.000000 1.842226 -1.571075 1.894407 9.291486 1.521028 -4.177635 -10.018714 2.414862 -37.940820 -6.622280 -20.320154 -5.833815 0.000000 0.000000 0.000000 -1.727628 -0.484520 1.375400 6.575139 -7.182183 -4.656756 12.919467 -12.169379 -47.248134 -1.238997 25.884884 -3.418240 0.000000 0.000000 0.000000 
